PathFileType	4	(X/Y/Z)	/Users/itak/Documents/Research/Walk-IL/dataset/trc/00241_00009.trc
DataRate	CameraRate	NumFrames	NumMarkers	Units	OrigDataRate	OrigDataStartFrame	OrigNumFrames
100.000000	100.000000	4	53	mm	100.000000	655	874
Frame#	Time	RPSI			LPSI			L3			STRN			T10			C7			CLAV			RBAK			LBAK			LSHO			LUPA			LAEL			LAOL			LWTS			LWPS			LFRA			LIFD			LHPS			LHTS			RSHO			RUPA			RAEL			RAOL			RWTS			RWPS			RFRA			RIFD			RHTS			RHPS			RBHD			LFHD			RFHD			LBHD			LHIP			RHIP			RASI			LASI			LKNE			LTHI			LANK			LTIP			LTOE			LMT1			LMT5			LHEE			RKNE			RTHI			RANK			RTIP			RTOE			RMT1			RMT5			RHEE			
		X1	Y1	Z1	X2	Y2	Z2	X3	Y3	Z3	X4	Y4	Z4	X5	Y5	Z5	X6	Y6	Z6	X7	Y7	Z7	X8	Y8	Z8	X9	Y9	Z9	X10	Y10	Z10	X11	Y11	Z11	X12	Y12	Z12	X13	Y13	Z13	X14	Y14	Z14	X15	Y15	Z15	X16	Y16	Z16	X17	Y17	Z17	X18	Y18	Z18	X19	Y19	Z19	X20	Y20	Z20	X21	Y21	Z21	X22	Y22	Z22	X23	Y23	Z23	X24	Y24	Z24	X25	Y25	Z25	X26	Y26	Z26	X27	Y27	Z27	X28	Y28	Z28	X29	Y29	Z29	X30	Y30	Z30	X31	Y31	Z31	X32	Y32	Z32	X33	Y33	Z33	X34	Y34	Z34	X35	Y35	Z35	X36	Y36	Z36	X37	Y37	Z37	X38	Y38	Z38	X39	Y39	Z39	X40	Y40	Z40	X41	Y41	Z41	X42	Y42	Z42	X43	Y43	Z43	X44	Y44	Z44	X45	Y45	Z45	X46	Y46	Z46	X47	Y47	Z47	X48	Y48	Z48	X49	Y49	Z49	X50	Y50	Z50	X51	Y51	Z51	X52	Y52	Z52	X53	Y53	Z53	

656	6.55	700.1785278320312	1032.149047851562	270.4939575195312	810.2009887695312	1042.229614257812	318.0643005371094	770.7884521484375	1129.513793945312	299.3697814941406	683.8316650390625	1297.211303710938	543.5750732421875	767.924560546875	1256.011962890625	301.2804260253906	750.2445068359375	1513.202392578125	379.599609375	692.1013793945312	1416.397705078125	526.8464965820312	706.4960327148438	1382.943969726562	272.0105590820312	860.7235107421875	1472.19287109375	396.5267639160156	880.9100341796875	1466.54150390625	499.423583984375	968.1612548828125	1351.902221679688	497.6076965332031	1000.847717285156	1144.274291992188	523.2089233398438	977.3500366210938	1122.776245117188	441.801513671875	931.501220703125	914.0381469726562	611.4187622070312	1014.1669921875	899.6654663085938	607.0110473632812	1012.547607421875	1039.438354492188	554.1931762695312	943.7456665039062	722.2833251953125	630.9221801757812	1008.805725097656	812.82958984375	630.35400390625	946.0888671875	817.6675415039062	657.6427612304688	570.73583984375	1474.009155273438	373.75927734375	513.9724731445312	1412.935180664062	327.2095947265625	482.3793334960938	1135.52783203125	272.5121765136719	577.3363037109375	1125.93310546875	273.8321533203125	462.2267761230469	942.646240234375	439.6292114257812	424.0111694335938	917.8983154296875	367.2158508300781	458.0971984863281	1068.670288085938	297.0343017578125	448.5910034179688	753.7393798828125	485.2994689941406	425.2758178710938	829.366455078125	486.59765625	401.56689453125	819.1397094726562	418.2354431152344	691.5660400390625	1675.194580078125	429.6182250976562	674.6693115234375	1669.695434570312	655.8029174804688	587.0253295898438	1669.4755859375	606.5149536132812	785.1666870117188	1670.920776367188	533.9933471679688	902.8264770507812	987.5914306640625	466.7175903320312	563.93701171875	994.4178466796875	321.4258117675781	563.6428833007812	1040.456298828125	424.8888854980469	820.03662109375	1027.156494140625	541.7996826171875	841.92236328125	507.9942321777344	536.240966796875	870.908203125	651.25439453125	525.6536254882812	861.776123046875	26.13694000244141	463.3951721191406	862.8643798828125	279.1612243652344	498.6634826660156	719.7623901367188	38.28068923950195	635.3275146484375	710.85546875	37.2025260925293	555.981201171875	824.2581787109375	26.8398265838623	586.6350708007812	839.5211791992188	37.50203323364258	385.8968811035156	529.8427734375	515.5673217773438	470.17626953125	521.6403198242188	780.7924194335938	407.2567443847656	691.249755859375	107.0205688476562	241.1539154052734	560.48193359375	400.0375671386719	452.4646911621094	641.7211303710938	50.34931945800781	433.3140258789062	704.8195190429688	60.84651184082031	406.5816955566406	624.1471557617188	63.62299346923828	318.2687683105469	766.1548461914062	135.3526153564453	218.1850738525391	
657	6.56	700.513427734375	1032.59130859375	275.0341796875	810.0875244140625	1042.541870117188	323.6626281738281	771.0081176757812	1129.762939453125	304.7916564941406	681.74609375	1297.3232421875	548.5399169921875	768.358154296875	1256.272216796875	306.909912109375	749.9176635742188	1513.423217773438	385.3466796875	690.0245361328125	1416.509765625	531.8341064453125	707.5001831054688	1383.25048828125	277.1288757324219	860.1970825195312	1472.423217773438	403.5689392089844	879.0556030273438	1466.800170898438	506.6760559082031	966.5284423828125	1352.353637695312	506.2375183105469	999.249267578125	1144.922485351562	533.1243286132812	976.9074096679688	1122.978881835938	451.5315856933594	928.8971557617188	915.049560546875	621.126708984375	1011.7578125	900.8527221679688	618.5242309570312	1010.67041015625	1040.281982421875	564.8345336914062	941.1883544921875	723.611328125	642.8663330078125	1006.112487792969	814.1829833984375	642.419921875	943.1025390625	819.1883544921875	668.9251098632812	570.4815673828125	1474.186767578125	377.3033447265625	514.39697265625	1413.16357421875	329.97509765625	483.5129699707031	1135.80859375	274.6929931640625	578.400634765625	1126.08740234375	277.4097900390625	460.7712707519531	943.7239990234375	442.3564147949219	423.711669921875	918.6016845703125	369.6405334472656	458.9071044921875	1068.981689453125	299.1780090332031	446.2882080078125	755.2698974609375	489.2936401367188	423.0362854003906	830.92431640625	489.6380920410156	400.3838195800781	820.2120361328125	421.0436096191406	690.322265625	1675.535888671875	435.1924133300781	671.0641479492188	1669.170288085938	661.1305541992188	583.991943359375	1668.990600585938	611.00341796875	782.8713989257812	1671.003540039062	540.4893798828125	901.4810180664062	987.6592407226562	472.90087890625	563.7874755859375	994.9450073242188	324.9806823730469	562.8247680664062	1040.765502929688	428.4388732910156	818.0401611328125	1027.088623046875	547.4340209960938	841.4597778320312	507.5046691894531	538.476806640625	869.9260864257812	651.0203857421875	529.3178100585938	861.6393432617188	26.21302795410156	463.3803405761719	862.553955078125	279.01953125	499.6884460449219	719.6304931640625	38.12514114379883	635.4496459960938	710.7442626953125	37.04244232177734	556.06591796875	824.2529296875	26.84697151184082	586.6472778320312	839.410888671875	37.58293533325195	385.7879333496094	526.8558959960938	516.8278198242188	475.20166015625	520.2784423828125	781.7926635742188	410.7841491699219	687.2048950195312	99.55367279052734	259.8371887207031	556.5907592773438	400.3905334472656	459.9786071777344	631.951904296875	50.80142593383789	452.6245422363281	695.9989013671875	59.21027755737305	427.1838073730469	617.6292724609375	60.09378051757812	336.7401123046875	763.0301513671875	125.817138671875	237.6672515869141	
658	6.57	700.8292846679688	1033.012573242188	279.5586547851562	809.9173583984375	1042.823364257812	329.2729187011719	771.1537475585938	1129.974609375	310.1922607421875	679.597900390625	1297.417358398438	553.5013427734375	768.6707763671875	1256.496948242188	312.5383911132812	749.4752807617188	1513.605224609375	391.0358581542969	687.8793334960938	1416.604370117188	536.7783813476562	708.3685302734375	1383.512573242188	282.215576171875	859.5399780273438	1472.6083984375	410.5190124511719	877.1046142578125	1467.0234375	513.8121337890625	964.768798828125	1352.764892578125	514.703857421875	997.5321655273438	1145.539428710938	542.8271484375	976.302734375	1123.16015625	461.0751342773438	926.1953735351562	916.0459594726562	630.7232055664062	1009.223754882812	902.0126953125	629.8006591796875	1008.660278320312	1041.092407226562	575.25146484375	938.500732421875	724.9253540039062	654.6146850585938	1003.294860839844	815.5230712890625	654.25537109375	939.9977416992188	820.69140625	679.9978637695312	570.1256103515625	1474.31689453125	380.8298645019531	514.7139892578125	1413.3408203125	332.7550048828125	484.5872802734375	1136.034545898438	276.8898315429688	579.39501953125	1126.22314453125	280.9768371582031	459.2826843261719	944.5890502929688	444.8827209472656	423.3760986328125	919.1763305664062	371.8746948242188	459.658935546875	1069.226928710938	301.2812805175781	443.9869689941406	756.5594482421875	492.9065551757812	420.7925109863281	832.2415161132812	492.3839416503906	399.1845703125	821.1084594726562	423.5536804199219	688.9891357421875	1675.797973632812	440.5660705566406	667.4226684570312	1668.772094726562	666.2470703125	580.9058837890625	1668.609375	615.3014526367188	780.4964599609375	1671.08935546875	546.7698364257812	900.0429077148438	987.6575927734375	479.1228637695312	563.6178588867188	995.405517578125	328.4778442382812	561.911865234375	1041.018798828125	431.9285583496094	815.893798828125	1026.927856445312	552.936279296875	840.8880004882812	507.0091857910156	540.7394409179688	868.8181762695312	650.76171875	533.0166015625	861.5134887695312	26.29772758483887	463.34521484375	862.1928100585938	278.8797302246094	500.7557678222656	719.4771118164062	37.96569061279297	635.57080078125	710.6181640625	36.87153244018555	556.1476440429688	824.243408203125	26.86285972595215	586.657958984375	839.268310546875	37.63353729248047	385.7101745605469	523.9464111328125	518.0084838867188	479.7326049804688	518.89697265625	782.6564331054688	413.9862060546875	682.4371948242188	92.43666839599609	278.4090270996094	552.5299072265625	400.7933959960938	467.0538635253906	620.9623413085938	51.29787063598633	471.1055908203125	685.966064453125	57.58953475952148	447.2242431640625	610.119140625	57.01261520385742	354.6207275390625	759.264892578125	116.4173202514648	257.3620300292969	
659	6.58	701.1305541992188	1033.396728515625	284.0816650390625	809.7010498046875	1043.064208984375	334.8947143554688	771.2327880859375	1130.153930664062	315.5794677734375	677.369140625	1297.485229492188	558.4307250976562	768.8685302734375	1256.68896484375	318.1669006347656	748.9142456054688	1513.750366210938	396.6711120605469	685.6710815429688	1416.68359375	541.6918334960938	709.0917358398438	1383.734375	287.276123046875	858.75244140625	1472.754516601562	417.3824157714844	875.0603637695312	1467.213012695312	520.8413696289062	962.8855590820312	1353.137573242188	523.013916015625	995.7005004882812	1146.124267578125	552.308837890625	975.5270385742188	1123.322998046875	470.4228210449219	923.4008178710938	917.0390014648438	640.2559204101562	1006.564086914062	903.139892578125	640.823486328125	1006.522338867188	1041.86767578125	585.4328002929688	935.6782836914062	726.220947265625	666.1414184570312	1000.359497070312	816.8438110351562	665.8380126953125	936.7810668945312	822.1703491210938	690.8453369140625	569.6681518554688	1474.408203125	384.3489685058594	514.9112548828125	1413.466552734375	335.5608825683594	485.597900390625	1136.207153320312	279.1131286621094	580.3163452148438	1126.345825195312	284.5416259765625	457.7682189941406	945.2431030273438	447.2200927734375	423.0035400390625	919.6240234375	373.9221496582031	460.3447570800781	1069.413818359375	303.3489990234375	441.6742553710938	757.5904541015625	496.1123657226562	418.5402526855469	833.3051147460938	494.8225402832031	397.9625549316406	821.82421875	425.751220703125	687.5730590820312	1675.97509765625	445.7499084472656	663.7471313476562	1668.499633789062	671.1658935546875	577.76953125	1668.334228515625	619.4214477539062	778.04638671875	1671.170776367188	552.84619140625	898.51220703125	987.5940551757812	485.3836669921875	563.4417114257812	995.8013305664062	331.9058532714844	560.89990234375	1041.209838867188	435.3423767089844	813.6142578125	1026.69140625	558.3687133789062	840.1904907226562	506.501708984375	543.0396118164062	867.5741577148438	650.474853515625	536.764892578125	861.3867797851562	26.38320732116699	463.2964782714844	861.7723999023438	278.7171325683594	501.8741455078125	719.30712890625	37.80503845214844	635.6895141601562	710.4755249023438	36.69034957885742	556.2259521484375	824.2284545898438	26.88884162902832	586.6676025390625	839.096923828125	37.66607284545898	385.6783447265625	521.1028442382812	519.1032104492188	483.8280334472656	517.4955444335938	783.392578125	416.8740234375	676.9283447265625	85.69686889648438	296.8397521972656	548.3352661132812	401.2348937988281	473.7534790039062	608.9534912109375	51.90893173217773	488.8087463378906	674.885009765625	56.08774948120117	466.7030639648438	601.7305908203125	54.36289215087891	371.9481506347656	754.799072265625	107.2394485473633	277.1822814941406	
